<?xml version="1.0" standalone="no"?><!DOCTYPE svg PUBLIC "-//W3C//DTD SVG 1.1//EN" "http://www.w3.org/Graphics/SVG/1.1/DTD/svg11.dtd"><svg t="1769312052764" class="icon" viewBox="0 0 1024 1024" version="1.1" xmlns="http://www.w3.org/2000/svg" p-id="2667" xmlns:xlink="http://www.w3.org/1999/xlink" width="256" height="256"><path d="M132.4544 131.8912m132.6592 0l503.6032 0q132.6592 0 132.6592 132.6592l0 503.6032q0 132.6592-132.6592 132.6592l-503.6032 0q-132.6592 0-132.6592-132.6592l0-503.6032q0-132.6592 132.6592-132.6592Z" fill="#FF9797" p-id="2668"></path><path d="M628.4288 128.8704s165.632 21.8624 165.632 141.7216v501.3504c0 30.1568-2.6624 107.52-132.1984 119.8592 92.16 0 247.04-2.2528 247.04-123.648V297.728c0-73.1136 14.6432-170.3424-280.4736-168.8576z" fill="#FC6565" p-id="2669"></path><path d="M404.48 128.8704s-165.4272 21.8624-165.4272 141.7216v501.3504c0 30.1568 2.6624 107.52 132.1472 119.8592-92.16 0-246.9888-2.2528-246.9888-123.648V297.728c0-73.1136-14.6944-170.3424 280.2688-168.8576z" fill="#FFB8B8" p-id="2670"></path><path d="M542.72 314.4704l46.08 93.2864a28.7744 28.7744 0 0 0 21.6064 15.7184l103.0144 14.9504a28.672 28.672 0 0 1 15.872 48.9472l-74.496 72.6528a28.5696 28.5696 0 0 0-8.2432 25.6l17.5616 102.4a28.672 28.672 0 0 1-41.6256 30.2592l-92.16-48.4352a28.672 28.672 0 0 0-26.7264 0l-92.16 48.4352a28.672 28.672 0 0 1-41.6256-30.2592l17.6128-102.4a28.7744 28.7744 0 0 0-8.2944-25.6L304.64 487.3728a28.672 28.672 0 0 1 15.872-48.9472l103.0144-14.9504a28.7744 28.7744 0 0 0 21.6064-15.7184l46.08-93.2864a28.672 28.672 0 0 1 51.5072 0z" fill="#FFD16C" p-id="2671"></path><path d="M592.0256 412.8768a26.6752 26.6752 0 0 1-3.328-5.12l-46.08-93.3376a28.7232 28.7232 0 0 0-51.2 0l-46.08 93.3376a28.7744 28.7744 0 0 1-21.6064 15.7184L320.512 438.4256a28.672 28.672 0 0 0-15.872 48.9472l74.496 72.6528a28.7744 28.7744 0 0 1 8.2944 25.6l-17.6128 102.4a28.672 28.672 0 0 0 41.6256 30.2592l34.0992-17.92a450.9184 450.9184 0 0 1 146.4832-287.488z" fill="#FFE8C0" p-id="2672"></path><path d="M768.7168 106.2912H265.1136a158.72 158.72 0 0 0-158.2592 158.2592V768a158.4128 158.4128 0 0 0 158.2592 158.2592h503.6032A158.4128 158.4128 0 0 0 926.976 768V264.5504a158.72 158.72 0 0 0-158.2592-158.2592zM875.776 768a107.1616 107.1616 0 0 1-107.0592 107.0592H265.1136A107.1616 107.1616 0 0 1 158.0544 768V264.5504a107.1616 107.1616 0 0 1 107.0592-107.0592h503.6032a107.1616 107.1616 0 0 1 107.0592 107.0592z" fill="#434A54" p-id="2673"></path><path d="M716.8 413.0816l-103.0144-14.9504a2.9696 2.9696 0 0 1-2.304-1.6896l-46.08-93.3376a54.3232 54.3232 0 0 0-97.28 0l-46.08 93.3376a3.1232 3.1232 0 0 1-2.3552 1.6896l-102.8608 14.9504A54.272 54.272 0 0 0 286.72 505.7024L361.2672 578.56a3.0208 3.0208 0 0 1 0.9216 2.7136l-17.6128 102.4a54.3232 54.3232 0 0 0 78.7968 57.2416l92.16-48.4352a3.1232 3.1232 0 0 1 2.8672 0l92.16 48.4352a53.9136 53.9136 0 0 0 57.1904-4.1472 53.9136 53.9136 0 0 0 21.6064-53.0944l-17.6128-102.4a3.0208 3.0208 0 0 1 0.9216-2.7136l74.496-72.6528A54.272 54.272 0 0 0 716.8 413.0816z m-5.6832 55.9616l-74.2912 72.6528a54.2208 54.2208 0 0 0-15.36 48.0256l17.5616 102.4a2.7136 2.7136 0 0 1-1.2288 3.0208 2.7648 2.7648 0 0 1-3.2256 0.256l-92.16-48.4352a54.2208 54.2208 0 0 0-50.5344 0l-92.16 48.4352a2.7648 2.7648 0 0 1-3.2256-0.256 2.7136 2.7136 0 0 1-1.2288-3.0208l17.5616-102.4a54.2208 54.2208 0 0 0-15.36-48.0256L322.56 469.0432a2.7648 2.7648 0 0 1-0.768-3.1744 2.7136 2.7136 0 0 1 2.4576-2.0992l103.0144-14.9504a54.3232 54.3232 0 0 0 40.96-29.696l46.08-93.3376a2.816 2.816 0 0 1 2.7648-1.7408 2.7648 2.7648 0 0 1 2.7648 1.7408l46.08 93.2864a54.4256 54.4256 0 0 0 40.96 29.7472l103.0144 14.9504a3.072 3.072 0 0 1 1.6896 5.12z" fill="#434A54" p-id="2674"></path></svg>
